# xmcd
#
# Track frame offsets:
#	182
#	16342
#	31492
#	45805
#	60942
#	76890
#	92697
#	107590
#	123000
#	137102
#	153085
#
# Disc length: 2248 seconds
#
# Revision: 1
# Processed by: cddbd v1.4PL0 Copyright (c) Steve Scherf et al.
# Submitted via: CDmax 1.9
#
DISCID=7008c60b
DTITLE=Deborah Allen - The Best Of Deborah Allen
DYEAR=2000
DGENRE=Country
TTITLE0=Baby I Lied
TTITLE1=I'm Only In It For The Love
TTITLE2=Born And Raised In Your Arms
TTITLE3=I'm Always Ready
TTITLE4=Under The Influence Of Love
TTITLE5=Am I Good For One More Memory
TTITLE6=Make Love True
TTITLE7=I've Seen That Look Before
TTITLE8=All Wrapped Up
TTITLE9=Is It Love Yet
TTITLE10=Goodbye Love
EXTD=LABEL=Curb\nID=D2-77962\nUPC=7 1518-77962-2 5
EXTT0=
EXTT1=
EXTT2=
EXTT3=
EXTT4=
EXTT5=
EXTT6=
EXTT7=
EXTT8=
EXTT9=
EXTT10=
PLAYORDER=
